# xmcd CD database file
#
# Track frame offsets:
#	150
#	18438
#	42821
#	64482
#	89124
#	116319
#	146151
#	166288
#	187571
#	206313
#	226647
#	251885
#
# Disc length: 3775 seconds
#
# Revision: 1
# Processed by: cddbd v1.5.2PL0 Copyright (c) Steve Scherf et al.
# Submitted via: CDex 1.51
#
DISCID=9c0ebd0c
DTITLE=Silje Nergaard - Darkness Out Of Blue
DYEAR=2007
DGENRE=Jazz
TTITLE0=Paper Boats
TTITLE1=Darkness out of blue
TTITLE2=The Diner
TTITLE3=Wastelands
TTITLE4=When Judy falls
TTITLE5=The Beachcomber
TTITLE6=What might have been
TTITLE7=Aren`t you cured yet
TTITLE8=Who goes there
TTITLE9=Before you called me yours
TTITLE10=How are you gonna deal with it
TTITLE11=Let me be troubled
EXTD=YEAR: 2007
EXTT0=
EXTT1=
EXTT2=
EXTT3=
EXTT4=
EXTT5=
EXTT6=
EXTT7=
EXTT8=
EXTT9=
EXTT10=
EXTT11=
PLAYORDER=
